<?xml version="1.0" encoding="UTF-8" standalone="no"?><!DOCTYPE svg PUBLIC "-//W3C//DTD SVG 1.1//EN" "http://www.w3.org/Graphics/SVG/1.1/DTD/svg11.dtd"><svg width="100%" height="100%" viewBox="0 0 23 29" version="1.1" xmlns="http://www.w3.org/2000/svg" xmlns:xlink="http://www.w3.org/1999/xlink" xml:space="preserve" xmlns:serif="http://www.serif.com/" style="fill-rule:evenodd;clip-rule:evenodd;stroke-linejoin:round;stroke-miterlimit:1.41421;"><path d="M0,0.275l0,18.841l4.064,-2.598c0,0 -0.052,-0.999 0.583,-1.399c0.626,-0.394 1.418,0 1.418,0l1.16,-0.925c-0.897,-1.222 -0.973,-2.726 -0.863,-4.143c0,0 -0.852,0.436 -1.108,0c-0.393,-0.672 0.435,-1.187 0.435,-1.187l3.989,-2.773c0,0 0.607,-0.657 1.245,0c0.428,0.44 -0.206,1.234 -0.206,1.234c3.167,1.305 5.089,3.719 5.091,7.335c0,0 0.692,-0.325 1.21,0.202c0.519,0.528 0,1.03 0,1.03l-4.007,3.224c0,0 -0.65,0.3 -1.068,-0.211c-0.418,-0.511 0,-1.096 0,-1.096c-1.443,-0.129 -2.627,-0.782 -3.421,-1.917l-1.297,0.897c0,0 0.194,0.641 -0.472,1.214c-0.667,0.574 -1.499,0 -1.499,0l-5.254,3.895l0,6.099l11.943,0c0,0 10.107,-3.879 10.107,-13.803c0,-9.924 -9.024,-13.919 -10.107,-13.919c-1.083,0 -11.943,0 -11.943,0Z" style="fill:#1c1313;"/></svg>