<?xml version="1.0" encoding="UTF-8" standalone="no"?><!DOCTYPE svg PUBLIC "-//W3C//DTD SVG 1.1//EN" "http://www.w3.org/Graphics/SVG/1.1/DTD/svg11.dtd"><svg width="100%" height="100%" viewBox="0 0 9 9" version="1.1" xmlns="http://www.w3.org/2000/svg" xmlns:xlink="http://www.w3.org/1999/xlink" xml:space="preserve" xmlns:serif="http://www.serif.com/" style="fill-rule:evenodd;clip-rule:evenodd;stroke-linecap:round;stroke-linejoin:round;stroke-miterlimit:1.5;"><g><path d="M3.571,5.422l1.324,-1.323" style="fill:none;stroke:#fff;stroke-width:0.55px;"/><path d="M3.289,5.153c-0.197,-0.197 -0.517,-0.197 -0.714,0l-1.863,1.863c-0.198,0.197 -0.198,0.517 0,0.715l0.579,0.579c0.197,0.197 0.517,0.197 0.715,0l1.863,-1.863c0.197,-0.197 0.197,-0.518 0,-0.715l-0.58,-0.579Z" style="fill:none;stroke:#fff;stroke-width:0.55px;"/><path d="M7.565,3.217l-1.834,-1.759l-1.714,1.788l1.834,1.759l1.714,-1.788Z" style="fill:none;stroke:#fff;stroke-width:0.55px;"/><path d="M5.544,0.458c-0.102,-0.102 -0.269,-0.102 -0.371,0l-2.119,2.119c-0.102,0.102 -0.102,0.269 0,0.371l0.372,0.372c0.102,0.102 0.269,0.102 0.371,0l2.119,-2.119c0.102,-0.102 0.102,-0.269 0,-0.371l-0.372,-0.372Z" style="fill:none;stroke:#fff;stroke-width:0.55px;"/><path d="M8.064,3.158c-0.112,-0.113 -0.294,-0.113 -0.406,0l-1.906,1.905c-0.112,0.112 -0.112,0.295 0,0.407l0.407,0.406c0.112,0.113 0.294,0.113 0.407,0l1.905,-1.905c0.112,-0.112 0.112,-0.295 0,-0.407l-0.407,-0.406Z" style="fill:none;stroke:#fff;stroke-width:0.55px;"/></g></svg>