<?xml version="1.0" encoding="UTF-8" standalone="no"?><!DOCTYPE svg PUBLIC "-//W3C//DTD SVG 1.1//EN" "http://www.w3.org/Graphics/SVG/1.1/DTD/svg11.dtd"><svg width="100%" height="100%" viewBox="0 0 12 9" version="1.1" xmlns="http://www.w3.org/2000/svg" xmlns:xlink="http://www.w3.org/1999/xlink" xml:space="preserve" xmlns:serif="http://www.serif.com/" style="fill-rule:evenodd;clip-rule:evenodd;stroke-linecap:round;stroke-linejoin:round;stroke-miterlimit:1.5;"><g id="image-icon"><path d="M11.048,3.208c0,-0.887 -0.72,-1.607 -1.607,-1.607l-7.662,0c-0.886,0 -1.607,0.72 -1.607,1.607l0,3.214c0,0.887 0.721,1.607 1.607,1.607l7.662,0c0.887,0 1.607,-0.72 1.607,-1.607l0,-3.214Z" style="fill:#fff;"/><path d="M11.598,2.245c0,-0.887 -0.721,-1.607 -1.607,-1.607l-7.662,0c-0.887,0 -1.607,0.72 -1.607,1.607l0,3.214c0,0.887 0.72,1.607 1.607,1.607l7.662,0c0.886,0 1.607,-0.72 1.607,-1.607l0,-3.214Z" style="fill:#fff5f5;stroke:#6b7a8f;stroke-width:0.75px;"/><circle cx="4.674" cy="2.557" r="0.936" style="fill:#6b7a8f;"/><path d="M1.879,2.132l0,3.981l8.731,0l0,-3.04l-1.428,-0.941l-4.444,2.703l-2.859,-2.703Z" style="fill:#6b7a8f;"/></g></svg>