<?xml version="1.0" encoding="UTF-8" standalone="no"?><!DOCTYPE svg PUBLIC "-//W3C//DTD SVG 1.1//EN" "http://www.w3.org/Graphics/SVG/1.1/DTD/svg11.dtd"><svg width="100%" height="100%" viewBox="0 0 9 9" version="1.1" xmlns="http://www.w3.org/2000/svg" xmlns:xlink="http://www.w3.org/1999/xlink" xml:space="preserve" xmlns:serif="http://www.serif.com/" style="fill-rule:evenodd;clip-rule:evenodd;stroke-linejoin:round;stroke-miterlimit:1.41421;"><path d="M7.938,0.372l0,8.611l-7.938,0l0,-0.682l2.35,-1.742c0,0 0.372,0.256 0.67,0c0.299,-0.257 0.211,-0.543 0.211,-0.543l0.581,-0.402c0.355,0.508 0.884,0.8 1.53,0.858c0,0 -0.187,0.261 0,0.49c0.187,0.229 0.477,0.094 0.477,0.094l1.793,-1.442c0,0 0.232,-0.224 0,-0.46c-0.232,-0.236 -0.541,-0.091 -0.541,-0.091c-0.002,-1.617 -0.861,-2.697 -2.278,-3.281c0,0 0.284,-0.355 0.093,-0.552c-0.286,-0.294 -0.557,0 -0.557,0l-1.784,1.241c0,0 -0.371,0.23 -0.195,0.531c0.115,0.195 0.496,0 0.496,0c-0.05,0.634 -0.016,1.306 0.385,1.853l-0.518,0.414c0,0 -0.354,-0.177 -0.635,0c-0.284,0.178 -0.26,0.625 -0.26,0.625l-1.818,1.162l0,-6.684l7.938,0Z" style="fill:#fff;"/></svg>